<?xml version="1.0" encoding="UTF-8" standalone="no"?>
<!-- Created with Inkscape (http://www.inkscape.org/) -->

<svg
   version="1.1"
   id="svg2"
   width="1162.8894"
   height="366.71228"
   viewBox="0 0 1162.8894 366.71229"
   xml:space="preserve"
   xmlns="http://www.w3.org/2000/svg"
   xmlns:svg="http://www.w3.org/2000/svg"><defs
     id="defs6"><clipPath
       clipPathUnits="userSpaceOnUse"
       id="clipPath122"><path
         d="M 0,1000 H 1000 V 0 H 0 Z"
         id="path120" /></clipPath><clipPath
       clipPathUnits="userSpaceOnUse"
       id="clipPath312"><path
         d="m 502.007,384.219 h 58 v -6 h -58 z"
         id="path310" /></clipPath><clipPath
       clipPathUnits="userSpaceOnUse"
       id="clipPath328"><path
         d="m 628.007,447.219 h 8.32 v -75.726 h -8.32 z"
         id="path326" /></clipPath><clipPath
       clipPathUnits="userSpaceOnUse"
       id="clipPath446"><path
         d="m 367.007,500.219 h 168 v -134 h -168 z"
         id="path444" /></clipPath><clipPath
       clipPathUnits="userSpaceOnUse"
       id="clipPath478"><path
         d="m 370.382,500.344 h 6.25 v -6.25 h -6.25 z"
         id="path476" /></clipPath><clipPath
       clipPathUnits="userSpaceOnUse"
       id="clipPath494"><path
         d="m 380.215,500.344 h 6.25 v -6.25 h -6.25 z"
         id="path492" /></clipPath><clipPath
       clipPathUnits="userSpaceOnUse"
       id="clipPath510"><path
         d="m 389.549,500.344 h 6.25 v -6.25 h -6.25 z"
         id="path508" /></clipPath><clipPath
       clipPathUnits="userSpaceOnUse"
       id="clipPath562"><path
         d="m 592.007,446.219 h 26.32 v -75.726 h -26.32 z"
         id="path560" /></clipPath></defs><g
     id="g8"
     transform="matrix(1.3333333,0,0,-1.3333333,-103.11067,756.19666)"><g
       id="g116"><g
         id="g118"
         clip-path="url(#clipPath122)"><g
           id="g292"
           transform="translate(182.5625,438.2266)"><path
             d="M 0,0 7.831,37.325 49,46.658"
             style="fill:none;stroke:#283035;stroke-width:8;stroke-linecap:round;stroke-linejoin:round;stroke-miterlimit:10;stroke-dasharray:none;stroke-opacity:1"
             id="path294" /></g><g
           id="g296"
           transform="translate(665.5908,324.1475)"><path
             d="m 0,0 h -372 v 222.887 c 0,9.451 7.662,17.113 17.113,17.113 H -17.112 C -7.661,240 0,232.338 0,222.887 Z"
             style="fill:#d2dce6;fill-opacity:1;fill-rule:nonzero;stroke:none"
             id="path298" /></g><g
           id="g300"
           transform="translate(665.5908,324.1475)"><path
             d="m 0,0 h -372 v 222.887 c 0,9.451 7.662,17.113 17.113,17.113 H -17.112 C -7.661,240 0,232.338 0,222.887 Z"
             style="fill:none;stroke:#283035;stroke-width:6;stroke-linecap:round;stroke-linejoin:round;stroke-miterlimit:10;stroke-dasharray:none;stroke-opacity:1"
             id="path302" /></g><path
           d="m 321.591,535.864 h 316 v -184 h -316 z"
           style="fill:#E5BA73;fill-opacity:1;fill-rule:nonzero;stroke:none"
           id="path304" /><g
           id="g306"><g
             id="g308" /><g
             id="g320"><g
               clip-path="url(#clipPath312)"
               opacity="0.300003"
               id="g318"><g
                 transform="translate(505.0068,381.2187)"
                 id="g316" /></g></g></g><g
           id="g322"><g
             id="g324" /><g
             id="g340"><g
               clip-path="url(#clipPath328)"
               opacity="0.300003"
               id="g338"><g
                 transform="translate(636.3271,383.5059)"
                 id="g336" /></g></g></g><path
           d="m 321.591,535.864 h 316 v -184 h -316 z"
           style="fill:none;stroke:#283035;stroke-width:6;stroke-linecap:round;stroke-linejoin:round;stroke-miterlimit:10;stroke-dasharray:none;stroke-opacity:1"
           id="path342" /><g
           id="g344"
           transform="translate(690.6396,295.2129)"><path
             d="m 0,0 h -422.097 c -11.046,0 -20,8.954 -20,20 v 4.791 c 0,2.209 1.791,4 4,4 H 16 c 2.209,0 4,-1.791 4,-4 V 20 C 20,8.954 11.045,0 0,0"
             style="fill:#e5e5e5;fill-opacity:1;fill-rule:nonzero;stroke:none"
             id="path346" /></g><g
           id="g348"
           transform="translate(690.6396,304.2129)"><path
             d="m 0,0 h -422.097 c -10.055,0 -18.353,7.429 -19.765,17.093 -0.142,-0.41 -0.235,-0.844 -0.235,-1.302 V 11 c 0,-11.046 8.954,-20 20,-20 H 0 c 11.045,0 20,8.954 20,20 v 4.791 c 0,0.458 -0.094,0.892 -0.235,1.302 C 18.354,7.429 10.055,0 0,0"
             style="fill:#cfd1d0;fill-opacity:1;fill-rule:nonzero;stroke:none"
             id="path350" /></g><g
           id="g352"
           transform="translate(690.6396,295.2129)"><path
             d="m 0,0 h -422.097 c -11.046,0 -20,8.954 -20,20 v 4.791 c 0,2.209 1.791,4 4,4 H 16 c 2.209,0 4,-1.791 4,-4 V 20 C 20,8.954 11.045,0 0,0 Z"
             style="fill:none;stroke:#283035;stroke-width:6;stroke-linecap:round;stroke-linejoin:round;stroke-miterlimit:10;stroke-dasharray:none;stroke-opacity:1"
             id="path354" /></g><g
           id="g356"
           transform="translate(513.5908,316.1475)"><path
             d="m 0,0 h -68 c -4.418,0 -8,3.582 -8,8 H 8 C 8,3.582 4.419,0 0,0"
             style="fill:#686b6d;fill-opacity:1;fill-rule:nonzero;stroke:none"
             id="path358" /></g><g
           id="g360"
           transform="translate(513.5908,316.1475)"><path
             d="m 0,0 h -68 c -4.418,0 -8,3.582 -8,8 H 8 C 8,3.582 4.419,0 0,0 Z"
             style="fill:none;stroke:#283035;stroke-width:4;stroke-linecap:round;stroke-linejoin:round;stroke-miterlimit:10;stroke-dasharray:none;stroke-opacity:1"
             id="path362" /></g><g
           id="g364"
           transform="translate(486.8037,550.3809)"><path
             d="m 0,0 c 0,-4.418 -3.582,-8 -8,-8 -4.418,0 -8,3.582 -8,8 0,4.418 3.582,8 8,8 4.418,0 8,-3.582 8,-8"
             style="fill:#686b6d;fill-opacity:1;fill-rule:nonzero;stroke:none"
             id="path366" /></g><g
           id="g368"
           transform="translate(486.8037,550.3809)"><path
             d="m 0,0 c 0,-4.418 -3.582,-8 -8,-8 -4.418,0 -8,3.582 -8,8 0,4.418 3.582,8 8,8 4.418,0 8,-3.582 8,-8 z"
             style="fill:none;stroke:#fafafa;stroke-width:4;stroke-linecap:round;stroke-linejoin:round;stroke-miterlimit:10;stroke-dasharray:none;stroke-opacity:1"
             id="path370" /></g><g
           id="g372"
           transform="translate(153.4551,295.2129)"><path
             d="m 0,0 h 49.102 c 3.524,0 6.499,2.619 6.944,6.115 l 13.115,102.899 h -89.22 L -6.943,6.115 C -6.498,2.619 -3.523,0 0,0"
             style="fill:#e5e5e5;fill-opacity:1;fill-rule:nonzero;stroke:none"
             id="path374" /></g><g
           id="g376"
           transform="translate(147.0479,404.2266)"><path
             d="m 0,0 10.406,-95.034 c 0.443,-4.049 3.863,-7.114 7.936,-7.114 h 44.207 l -0.096,-0.75 c -0.445,-3.497 -3.42,-6.116 -6.944,-6.116 H 6.407 c -3.523,0 -6.498,2.619 -6.943,6.116 L -13.651,0 Z"
             style="fill:#f4f4f4;fill-opacity:1;fill-rule:nonzero;stroke:none"
             id="path378" /></g><g
           id="g380"
           transform="translate(153.4551,295.2129)"><path
             d="m 0,0 h 49.102 c 3.524,0 6.499,2.619 6.944,6.115 l 13.115,102.899 h -89.22 L -6.943,6.115 C -6.498,2.619 -3.523,0 0,0 Z"
             style="fill:none;stroke:#283035;stroke-width:6;stroke-linecap:round;stroke-linejoin:round;stroke-miterlimit:10;stroke-dasharray:none;stroke-opacity:1"
             id="path382" /></g><g
           id="g384"
           transform="translate(219.25,324.8359)"><path
             d="M 0,0 6.343,49.767 H -88.83 L -82.487,0 Z"
             style="fill:#E5BA73;fill-opacity:1;fill-rule:nonzero;stroke:none"
             id="path386" /></g><g
           id="g388"
           transform="translate(219.25,324.8359)"><path
             d="M 0,0 6.343,49.767 H -88.83 L -82.487,0 Z"
             style="fill:#efd5a9;fill-opacity:1;fill-rule:nonzero;stroke:none"
             id="path390" /></g><g
           id="g392"
           transform="translate(218.8564,330.5859)"><path
             d="M 0,0 5.318,44.017 H -74.489 L -69.593,3.493 C -69.352,1.5 -67.659,0 -65.651,0 Z"
             style="fill:#E5BA73;fill-opacity:1;fill-rule:nonzero;stroke:none"
             id="path394" /></g><g
           id="g396"
           transform="translate(219.25,324.8359)"><path
             d="M 0,0 6.343,49.767 H -88.83 L -82.487,0 Z"
             style="fill:none;stroke:#283035;stroke-width:6;stroke-linecap:round;stroke-linejoin:round;stroke-miterlimit:10;stroke-dasharray:none;stroke-opacity:1"
             id="path398" /></g><g
           id="g400"
           transform="translate(127.667,404.2266)"><path
             d="m 0,0 h 100.679 c 6.075,0 11,4.925 11,11 0,6.075 -4.925,11 -11,11 H 0 C -6.075,22 -11,17.075 -11,11 -11,4.925 -6.075,0 0,0"
             style="fill:#E5BA73;fill-opacity:1;fill-rule:nonzero;stroke:none"
             id="path402" /></g><g
           id="g404"
           transform="translate(127.667,404.2266)"><path
             d="m 0,0 h 100.679 c 6.075,0 11,4.925 11,11 0,6.075 -4.925,11 -11,11 H 0 C -6.075,22 -11,17.075 -11,11 -11,4.925 -6.075,0 0,0"
             style="fill:#E5BA73;fill-opacity:1;fill-rule:nonzero;stroke:none"
             id="path406" /></g><g
           id="g408"
           transform="translate(139.0449,408.9766)"><path
             d="m 0,0 h 91.676 c 4.762,0 8.625,3.861 8.625,8.625 0,4.764 -3.863,8.625 -8.625,8.625 H 0 c -4.764,0 -8.625,-3.861 -8.625,-8.625 C -8.625,3.861 -4.764,0 0,0"
             style="fill:#E5BA73;fill-opacity:1;fill-rule:nonzero;stroke:none"
             id="path410" /></g><g
           id="g412"
           transform="translate(127.667,404.2266)"><path
             d="m 0,0 h 100.679 c 6.075,0 11,4.925 11,11 0,6.075 -4.925,11 -11,11 H 0 C -6.075,22 -11,17.075 -11,11 -11,4.925 -6.075,0 0,0 Z"
             style="fill:none;stroke:#283035;stroke-width:6;stroke-linecap:round;stroke-linejoin:round;stroke-miterlimit:10;stroke-dasharray:none;stroke-opacity:1"
             id="path414" /></g><g
           id="g416"
           transform="translate(138.0059,426.2266)"><path
             d="M 0,0 H 80 L 78.417,12 H 1.584 Z"
             style="fill:#E5BA73;fill-opacity:1;fill-rule:nonzero;stroke:none"
             id="path418" /></g><g
           id="g420"
           transform="translate(139.5898,438.2266)"><path
             d="m 0,0 h 23.473 l -5.557,-12 h -19.5 z"
             style="fill:#E5BA73;fill-opacity:1;fill-rule:nonzero;stroke:none"
             id="path422" /></g><g
           id="g424"
           transform="translate(138.0059,426.2266)"><path
             d="M 0,0 H 80 L 78.417,12 H 1.584 Z"
             style="fill:none;stroke:#283035;stroke-width:6;stroke-linecap:round;stroke-linejoin:round;stroke-miterlimit:10;stroke-dasharray:none;stroke-opacity:1"
             id="path426" /></g><g
           id="g428"
           transform="translate(721.1338,295.1133)"><path
             d="M 0,0 C 0,16.011 12.979,28.99 28.989,28.99 45,28.99 57.979,16.011 57.979,0 Z"
             style="fill:#e5e5e5;fill-opacity:1;fill-rule:nonzero;stroke:none"
             id="path430" /></g><g
           id="g432"
           transform="translate(750.124,304.2715)"><path
             d="M 0,0 C 8.891,0 16.814,3.803 21.977,9.736 16.66,15.914 8.79,19.832 0,19.832 -8.791,19.832 -16.661,15.914 -21.978,9.736 -16.815,3.803 -8.892,0 0,0"
             style="fill:#cfd1d0;fill-opacity:1;fill-rule:nonzero;stroke:none"
             id="path434" /></g><g
           id="g436"
           transform="translate(721.1338,295.1133)"><path
             d="M 0,0 C 0,16.011 12.979,28.99 28.989,28.99 45,28.99 57.979,16.011 57.979,0 Z"
             style="fill:none;stroke:#283035;stroke-width:6;stroke-linecap:round;stroke-linejoin:round;stroke-miterlimit:10;stroke-dasharray:none;stroke-opacity:1"
             id="path438" /></g><g
           id="g440"><g
             id="g442" /><g
             id="g454"><g
               clip-path="url(#clipPath446)"
               opacity="0.139999"
               id="g452"><g
                 transform="translate(526.999,366.2187)"
                 id="g450"><path
                   d="M 53.243539,0 H -149.31903 c -5.89492,0 -10.67297,3.585 -10.67297,8.008 v 117.984 c 0,4.422 4.77805,8.008 10.67297,8.008 H 53.243539 c 5.894924,0 10.672972,-3.586 10.672972,-8.008 V 8.008 C 63.916511,3.585 59.138463,0 53.243539,0"
                   style="fill:#000000;fill-opacity:1;fill-rule:nonzero;stroke:none;stroke-width:1.15446"
                   id="path448" /></g></g></g></g><g
           id="g456"
           transform="matrix(1.2499581,0,0,1,559.1573,373.2187)"><path
             d="m 0,0 h -151.984 c -4.423,0 -8.008,3.585 -8.008,8.008 v 117.984 c 0,4.423 3.585,8.008 8.008,8.008 H 0 c 4.422,0 8.008,-3.585 8.008,-8.008 V 8.008 C 8.008,3.585 4.422,0 0,0"
             style="fill:#353f49;fill-opacity:1;fill-rule:nonzero;stroke:none"
             id="path458" /></g><g
           id="g460"
           transform="matrix(1.2539047,0,0,0.99648334,560.02434,373.45432)"><path
             d="m 0,0 h -151.984 c -4.423,0 -8.008,3.585 -8.008,8.008 v 117.984 c 0,4.423 3.585,8.008 8.008,8.008 H 0 c 4.422,0 8.008,-3.585 8.008,-8.008 V 8.008 C 8.008,3.585 4.422,0 0,0 Z"
             style="fill:none;stroke:#283035;stroke-width:4;stroke-linecap:round;stroke-linejoin:round;stroke-miterlimit:10;stroke-dasharray:none;stroke-opacity:1"
             id="path462" /></g><g
           id="g464"
           transform="matrix(1.2620578,0,0,1,571.19951,487.2187)"><path
             d="m 0,0 h -168 v 11.992 c 0,4.423 3.585,8.008 8.008,8.008 H -8.008 C -3.586,20 0,16.415 0,11.992 Z"
             style="fill:#eaeeef;fill-opacity:1;fill-rule:nonzero;stroke:none"
             id="path466" /></g><g
           id="g468"
           transform="matrix(1.2488461,0,0,0.97887032,569.19124,487.43)"><path
             d="m 0,0 h -168 v 11.992 c 0,4.423 3.585,8.008 8.008,8.008 H -8.008 C -3.586,20 0,16.415 0,11.992 Z"
             style="fill:none;stroke:#283035;stroke-width:4;stroke-linecap:round;stroke-linejoin:round;stroke-miterlimit:10;stroke-dasharray:none;stroke-opacity:1"
             id="path470" /></g><g
           id="g472"><g
             id="g474" /><g
             id="g486"><g
               clip-path="url(#clipPath478)"
               opacity="0.350006"
               id="g484"><g
                 transform="translate(376.6318,497.2187)"
                 id="g482"><path
                   d="m 0,0 c 0,-1.726 -1.399,-3.125 -3.125,-3.125 -1.726,0 -3.125,1.399 -3.125,3.125 0,1.726 1.399,3.125 3.125,3.125 C -1.399,3.125 0,1.726 0,0"
                   style="fill:#283035;fill-opacity:1;fill-rule:nonzero;stroke:none"
                   id="path480" /></g></g></g></g><g
           id="g488"><g
             id="g490" /><g
             id="g502"><g
               clip-path="url(#clipPath494)"
               opacity="0.350006"
               id="g500"><g
                 transform="translate(386.4648,497.2187)"
                 id="g498"><path
                   d="m 0,0 c 0,-1.726 -1.398,-3.125 -3.125,-3.125 -1.726,0 -3.125,1.399 -3.125,3.125 0,1.726 1.399,3.125 3.125,3.125 C -1.398,3.125 0,1.726 0,0"
                   style="fill:#283035;fill-opacity:1;fill-rule:nonzero;stroke:none"
                   id="path496" /></g></g></g></g><g
           id="g504"><g
             id="g506" /><g
             id="g518"><g
               clip-path="url(#clipPath510)"
               opacity="0.350006"
               id="g516"><g
                 transform="translate(395.7988,497.2187)"
                 id="g514"><path
                   d="m 0,0 c 0,-1.726 -1.399,-3.125 -3.125,-3.125 -1.727,0 -3.125,1.399 -3.125,3.125 0,1.726 1.398,3.125 3.125,3.125 C -1.399,3.125 0,1.726 0,0"
                   style="fill:#283035;fill-opacity:1;fill-rule:nonzero;stroke:none"
                   id="path512" /></g></g></g></g><g
           id="g520"
           transform="translate(367.0068,480.2187)"><path
             d="M 0,0 H 11"
             style="fill:none;stroke:#E5BA73;stroke-width:3;stroke-linecap:butt;stroke-linejoin:miter;stroke-miterlimit:10;stroke-dasharray:none;stroke-opacity:1"
             id="path522" /></g><g
           id="g524"
           transform="translate(382.0068,480.2187)"><path
             d="M 0,0 H 30"
             style="fill:none;stroke:#E5BA73;stroke-width:3;stroke-linecap:butt;stroke-linejoin:miter;stroke-miterlimit:10;stroke-dasharray:none;stroke-opacity:1"
             id="path526" /></g><g
           id="g528"
           transform="translate(367.0068,472.2187)"><path
             d="M 0,0 H 45"
             style="fill:none;stroke:#389abe;stroke-width:3;stroke-linecap:butt;stroke-linejoin:miter;stroke-miterlimit:10;stroke-dasharray:none;stroke-opacity:1"
             id="path530" /></g><g
           id="g532"
           transform="translate(376.0068,464.2187)"><path
             d="M 0,0 H 22"
             style="fill:none;stroke:#e5c689;stroke-width:3;stroke-linecap:butt;stroke-linejoin:miter;stroke-miterlimit:10;stroke-dasharray:none;stroke-opacity:1"
             id="path534" /></g><g
           id="g536"
           transform="translate(402.0068,464.2187)"><path
             d="M 0,0 H 24"
             style="fill:none;stroke:#f2f3f4;stroke-width:3;stroke-linecap:butt;stroke-linejoin:miter;stroke-miterlimit:10;stroke-dasharray:none;stroke-opacity:1"
             id="path538" /></g><g
           id="g540"
           transform="translate(388.0068,456.2187)"><path
             d="M 0,0 H 46"
             style="fill:none;stroke:#f2f3f4;stroke-width:3;stroke-linecap:butt;stroke-linejoin:miter;stroke-miterlimit:10;stroke-dasharray:none;stroke-opacity:1"
             id="path542" /></g><g
           id="g544"
           transform="translate(388.0068,448.2187)"><path
             d="M 0,0 H 34"
             style="fill:none;stroke:#ffa49f;stroke-width:3;stroke-linecap:butt;stroke-linejoin:miter;stroke-miterlimit:10;stroke-dasharray:none;stroke-opacity:1"
             id="path546" /></g><g
           id="g548"
           transform="translate(376.0068,440.2187)"><path
             d="M 0,0 H 50"
             style="fill:none;stroke:#f2f3f4;stroke-width:3;stroke-linecap:butt;stroke-linejoin:miter;stroke-miterlimit:10;stroke-dasharray:none;stroke-opacity:1"
             id="path550" /></g><g
           id="g552"
           transform="translate(367.0068,433.2187)"><path
             d="M 0,0 H 27"
             style="fill:none;stroke:#389abe;stroke-width:3;stroke-linecap:butt;stroke-linejoin:miter;stroke-miterlimit:10;stroke-dasharray:none;stroke-opacity:1"
             id="path554" /></g><g
           id="g556"><g
             id="g558" /><g
             id="g570"><g
               clip-path="url(#clipPath562)"
               opacity="0.300003"
               id="g568"><g
                 transform="translate(599.6426,394.4775)"
                 id="g566" /></g></g></g><g
           id="g572"
           transform="translate(880.6416,295.1133)"><path
             d="m 0,0 h -77.8 c -5.026,0 -9.1,4.075 -9.1,9.101 V 120.9 c 0,5.026 4.074,9.1 9.1,9.1 H 0 c 5.025,0 9.1,-4.074 9.1,-9.1 V 9.101 C 9.1,4.075 5.025,0 0,0"
             style="fill:#e5e5e5;fill-opacity:1;fill-rule:nonzero;stroke:none"
             id="path586" /></g><g
           id="g588"
           transform="translate(880.6416,425.1133)"><path
             d="m 0,0 h -1.153 c 0.16,-0.675 0.253,-1.376 0.253,-2.1 v -111.799 c 0,-5.026 -4.075,-9.101 -9.1,-9.101 h -76.646 c 0.949,-4.011 4.544,-7 8.846,-7 H 0 c 5.025,0 9.1,4.075 9.1,9.101 V -9.1 C 9.1,-4.074 5.025,0 0,0"
             style="fill:#cfd1d0;fill-opacity:1;fill-rule:nonzero;stroke:none"
             id="path590" /></g><g
           id="g592"
           transform="translate(880.6416,295.1133)"><path
             d="m 0,0 h -77.8 c -5.026,0 -9.1,4.075 -9.1,9.101 V 120.9 c 0,5.026 4.074,9.1 9.1,9.1 H 0 c 5.025,0 9.1,-4.074 9.1,-9.1 V 9.101 C 9.1,4.075 5.025,0 0,0 Z"
             style="fill:none;stroke:#283035;stroke-width:6;stroke-linecap:round;stroke-linejoin:round;stroke-miterlimit:10;stroke-dasharray:none;stroke-opacity:1"
             id="path594" /></g><g
           id="g596"
           transform="translate(857.7412,432.6572)"><path
             d="m 0,0 h -8 v 3 c 0,4.419 -3.581,8 -8,8 -4.418,0 -8,-3.581 -8,-8 V 0 h -8 c -4.418,0 -8,-3.581 -8,-8 0,-4.418 3.582,-8 8,-8 H 0 c 4.419,0 8,3.582 8,8 0,4.419 -3.581,8 -8,8"
             style="fill:#f7b66f;fill-opacity:1;fill-rule:nonzero;stroke:none"
             id="path598" /></g><g
           id="g600"
           transform="translate(861.458,431.7383)"><path
             d="m 0,0 c 0.18,-0.664 0.283,-1.359 0.283,-2.081 0,-4.418 -3.581,-8 -8,-8 h -32 c -1.343,0 -2.605,0.335 -3.717,0.92 0.917,-3.408 4.02,-5.92 7.717,-5.92 h 32 c 4.419,0 8,3.582 8,8 C 4.283,-4.005 2.546,-1.339 0,0"
             style="fill:#eda762;fill-opacity:1;fill-rule:nonzero;stroke:none"
             id="path602" /></g><g
           id="g604"
           transform="translate(845.7412,440.6572)"><path
             d="M 0,0 V -3 H 3.738 C 3.169,-0.794 1.689,1.044 -0.283,2.081 -0.104,1.417 0,0.722 0,0"
             style="fill:#eda762;fill-opacity:1;fill-rule:nonzero;stroke:none"
             id="path606" /></g><g
           id="g608"
           transform="translate(857.7412,432.6572)"><path
             d="m 0,0 h -8 v 3 c 0,4.419 -3.581,8 -8,8 -4.418,0 -8,-3.581 -8,-8 V 0 h -8 c -4.418,0 -8,-3.581 -8,-8 0,-4.418 3.582,-8 8,-8 H 0 c 4.419,0 8,3.582 8,8 0,4.419 -3.581,8 -8,8 z"
             style="fill:none;stroke:#283035;stroke-width:6;stroke-linecap:round;stroke-linejoin:round;stroke-miterlimit:10;stroke-dasharray:none;stroke-opacity:1"
             id="path610" /></g><g
           id="g612"
           transform="translate(850.0752,395.9912)"><path
             d="m 0,0 c 0,-4.603 -3.731,-8.334 -8.334,-8.334 -4.603,0 -8.333,3.731 -8.333,8.334 0,4.603 3.73,8.333 8.333,8.333 C -3.731,8.333 0,4.603 0,0"
             style="fill:#8eafbf;fill-opacity:1;fill-rule:nonzero;stroke:none"
             id="path614" /></g><g
           id="g616"
           transform="translate(850.0752,395.9912)"><path
             d="m 0,0 c 0,-4.603 -3.731,-8.334 -8.334,-8.334 -4.603,0 -8.333,3.731 -8.333,8.334 0,4.603 3.73,8.333 8.333,8.333 C -3.731,8.333 0,4.603 0,0 Z"
             style="fill:none;stroke:#283035;stroke-width:6;stroke-linecap:round;stroke-linejoin:round;stroke-miterlimit:10;stroke-dasharray:none;stroke-opacity:1"
             id="path618" /></g><g
           id="g620"
           transform="translate(809.9639,370.3242)"><path
             d="M 0,0 H 20"
             style="fill:none;stroke:#283035;stroke-width:6;stroke-linecap:round;stroke-linejoin:round;stroke-miterlimit:10;stroke-dasharray:none;stroke-opacity:1"
             id="path622" /></g><g
           id="g624"
           transform="translate(809.9639,343.1572)"><path
             d="M 0,0 H 20"
             style="fill:none;stroke:#283035;stroke-width:6;stroke-linecap:round;stroke-linejoin:round;stroke-miterlimit:10;stroke-dasharray:none;stroke-opacity:1"
             id="path626" /></g><g
           id="g628"
           transform="translate(809.9639,315.9912)"><path
             d="M 0,0 H 20"
             style="fill:none;stroke:#283035;stroke-width:6;stroke-linecap:round;stroke-linejoin:round;stroke-miterlimit:10;stroke-dasharray:none;stroke-opacity:1"
             id="path630" /></g><g
           id="g632"
           transform="translate(843.1777,371.3945)"><path
             d="M 0,0 5.214,-6.936 20.818,4.795"
             style="fill:none;stroke:#E5BA73;stroke-width:4;stroke-linecap:round;stroke-linejoin:round;stroke-miterlimit:10;stroke-dasharray:none;stroke-opacity:1"
             id="path634" /></g><g
           id="g636"
           transform="translate(843.1777,344.2275)"><path
             d="M 0,0 5.214,-6.935 20.818,4.795"
             style="fill:none;stroke:#E5BA73;stroke-width:4;stroke-linecap:round;stroke-linejoin:round;stroke-miterlimit:10;stroke-dasharray:none;stroke-opacity:1"
             id="path638" /></g><g
           id="g640"
           transform="translate(908.4668,306.0801)"><path
             d="m 0,0 -9.904,-1.378 -8.822,63.389 9.906,1.379 z"
             style="fill:#E5BA73;fill-opacity:1;fill-rule:nonzero;stroke:none"
             id="path642" /></g><g
           id="g644"
           transform="translate(908.4668,306.0801)"><path
             d="m 0,0 -9.904,-1.378 -8.822,63.389 9.906,1.379 z"
             style="fill:none;stroke:#283035;stroke-width:4;stroke-linecap:round;stroke-linejoin:round;stroke-miterlimit:10;stroke-dasharray:none;stroke-opacity:1"
             id="path646" /></g><g
           id="g648"
           transform="translate(908.4668,306.0801)"><path
             d="m 0,0 -9.904,-1.378 6.33,-9.216 z"
             style="fill:#e5e5e5;fill-opacity:1;fill-rule:nonzero;stroke:none"
             id="path650" /></g><g
           id="g652"
           transform="translate(908.4668,306.0801)"><path
             d="m 0,0 -9.904,-1.378 6.33,-9.216 z"
             style="fill:none;stroke:#283035;stroke-width:4;stroke-linecap:round;stroke-linejoin:round;stroke-miterlimit:10;stroke-dasharray:none;stroke-opacity:1"
             id="path654" /></g><g
           id="g656"
           transform="translate(896.2871,379.0986)"><path
             d="m 0,0 -5.943,-0.827 1.379,-9.904 5.942,0.826 z"
             style="fill:#e5e5e5;fill-opacity:1;fill-rule:nonzero;stroke:none"
             id="path658" /></g><g
           id="g660"
           transform="translate(896.2871,379.0986)"><path
             d="m 0,0 -5.943,-0.827 1.379,-9.904 5.942,0.826 z"
             style="fill:none;stroke:#283035;stroke-width:4;stroke-linecap:round;stroke-linejoin:round;stroke-miterlimit:10;stroke-dasharray:none;stroke-opacity:1"
             id="path662" /></g><g
           id="g664"
           transform="translate(908.5957,344.4551)"><path
             d="m 0,0 c -0.843,1.395 -1.824,3.412 -2.347,5.983 -1.104,5.434 1.623,8.54 0.148,11.632 -0.588,1.233 -0.873,2.917 -5.29,3.555"
             style="fill:none;stroke:#283035;stroke-width:4;stroke-linecap:round;stroke-linejoin:round;stroke-miterlimit:10;stroke-dasharray:none;stroke-opacity:1"
             id="path666" /></g><g
           id="g668"
           transform="translate(920.751,295.1133)"><path
             d="M 0,0 H 25.749"
             style="fill:none;stroke:#283035;stroke-width:6;stroke-linecap:round;stroke-linejoin:round;stroke-miterlimit:10;stroke-dasharray:none;stroke-opacity:1"
             id="path670" /></g><g
           id="g672"
           transform="translate(234.333,295.1133)"><path
             d="M 0,0 H 675.167"
             style="fill:none;stroke:#283035;stroke-width:6;stroke-linecap:round;stroke-linejoin:round;stroke-miterlimit:10;stroke-dasharray:none;stroke-opacity:1"
             id="path674" /></g><g
           id="g676"
           transform="translate(114.75,295.1133)"><path
             d="M 0,0 H 107.866"
             style="fill:none;stroke:#283035;stroke-width:6;stroke-linecap:round;stroke-linejoin:round;stroke-miterlimit:10;stroke-dasharray:none;stroke-opacity:1"
             id="path678" /></g><g
           id="g680"
           transform="translate(80.333,295.1133)"><path
             d="M 0,0 H 23.167"
             style="fill:none;stroke:#283035;stroke-width:6;stroke-linecap:round;stroke-linejoin:round;stroke-miterlimit:10;stroke-dasharray:none;stroke-opacity:1"
             id="path682" /></g><g
           id="g684"
           transform="translate(529.0068,796.4175)" /></g></g><g
       style="fill:#f2f2f2"
       id="g1"
       transform="matrix(0.08985869,0,0,-0.08985869,462.78883,475.89038)"><path
         fill-rule="evenodd"
         clip-rule="evenodd"
         d="M 8,0 C 3.58,0 0,3.58 0,8 c 0,3.54 2.29,6.53 5.47,7.59 0.4,0.07 0.55,-0.17 0.55,-0.38 0,-0.19 -0.01,-0.82 -0.01,-1.49 C 4,14.09 3.48,13.23 3.32,12.78 3.23,12.55 2.84,11.84 2.5,11.65 2.22,11.5 1.82,11.13 2.49,11.12 3.12,11.11 3.57,11.7 3.72,11.94 4.44,13.15 5.59,12.81 6.05,12.6 6.12,12.08 6.33,11.73 6.56,11.53 4.78,11.33 2.92,10.64 2.92,7.58 2.92,6.71 3.23,5.99 3.74,5.43 3.66,5.23 3.38,4.41 3.82,3.31 c 0,0 0.67,-0.21 2.2,0.82 0.64,-0.18 1.32,-0.27 2,-0.27 0.68,0 1.36,0.09 2,0.27 1.53,-1.04 2.2,-0.82 2.2,-0.82 0.44,1.1 0.16,1.92 0.08,2.12 0.51,0.56 0.82,1.27 0.82,2.15 0,3.07 -1.87,3.75 -3.65,3.95 0.29,0.25 0.54,0.73 0.54,1.48 0,1.07 -0.01,1.93 -0.01,2.2 0,0.21 0.15,0.46 0.55,0.38 C 13.71,14.53 16,11.53 16,8 16,3.58 12.42,0 8,0 Z"
         transform="scale(64)"
         fill="#1b1f23"
         id="path1"
         style="fill:#f2f2f2" /></g></g></svg>
