<?xml version="1.0" encoding="UTF-8" standalone="no"?>
<!-- Created with Inkscape (http://www.inkscape.org/) -->

<svg
  version="1.1"
  id="svg2"
  width="1127.3337"
  height="483.06375"
  viewBox="0 0 1127.3338 483.06377"
  xml:space="preserve"
  xmlns="http://www.w3.org/2000/svg"
  xmlns:svg="http://www.w3.org/2000/svg"><defs
     id="defs6"><clipPath
       clipPathUnits="userSpaceOnUse"
       id="clipPath16"><path
         d="M 0,1000 H 1000 V 0 H 0 Z"
         id="path14" /></clipPath><clipPath
       clipPathUnits="userSpaceOnUse"
       id="clipPath540"><path
         d="m 428.25,668.201 h 232 v -164 h -232 z"
         id="path538" /></clipPath><clipPath
       clipPathUnits="userSpaceOnUse"
       id="clipPath572"><path
         d="M 346.125,711.411 H 381.2 v -218 h -35.075 z"
         id="path570" /></clipPath><clipPath
       clipPathUnits="userSpaceOnUse"
       id="clipPath588"><path
         d="m 663.221,711.411 h 54.904 v -218 h -54.904 z"
         id="path586" /></clipPath><clipPath
       clipPathUnits="userSpaceOnUse"
       id="clipPath612"><path
         d="m 662.352,493.32 h 55.773 v -64 h -55.773 z"
         id="path610" /></clipPath><clipPath
       clipPathUnits="userSpaceOnUse"
       id="clipPath676"><path
         d="m 543.221,609.411 h 58.666 v -6 h -58.666 z"
         id="path674" /></clipPath><clipPath
       clipPathUnits="userSpaceOnUse"
       id="clipPath692"><path
         d="m 543.221,590.471 h 83.333 v -6 h -83.333 z"
         id="path690" /></clipPath><clipPath
       clipPathUnits="userSpaceOnUse"
       id="clipPath708"><path
         d="m 510.458,570.814 h 54 v -54 h -54 z"
         id="path706" /></clipPath><clipPath
       clipPathUnits="userSpaceOnUse"
       id="clipPath732"><path
         d="m 584.887,552.647 h 21.582 V 538.98 h -21.582 z"
         id="path730" /></clipPath><clipPath
       clipPathUnits="userSpaceOnUse"
       id="clipPath748"><path
         d="m 463.617,552.647 h 21.582 V 538.98 h -21.582 z"
         id="path746" /></clipPath><clipPath
       clipPathUnits="userSpaceOnUse"
       id="clipPath812"><path
         d="m 225.288,524.804 h 59 v -59 h -59 z"
         id="path810" /></clipPath><clipPath
       clipPathUnits="userSpaceOnUse"
       id="clipPath832"><path
         d="m 220.521,458.132 h 67 v -67 h -67 z"
         id="path830" /></clipPath><clipPath
       clipPathUnits="userSpaceOnUse"
       id="clipPath924"><path
         d="m 787.343,524.804 h 59 v -59 h -59 z"
         id="path922" /></clipPath><clipPath
       clipPathUnits="userSpaceOnUse"
       id="clipPath944"><path
         d="m 782.576,458.132 h 67 v -67 h -67 z"
         id="path942" /></clipPath><clipPath
       clipPathUnits="userSpaceOnUse"
       id="clipPath984"><path
         d="m 428.875,668.056 h 8 v -8 h -8 z"
         id="path982" /></clipPath><clipPath
       clipPathUnits="userSpaceOnUse"
       id="clipPath1000"><path
         d="m 442.375,668.056 h 8 v -8 h -8 z"
         id="path998" /></clipPath><clipPath
       clipPathUnits="userSpaceOnUse"
       id="clipPath1016"><path
         d="m 455.875,668.056 h 8 v -8 h -8 z"
         id="path1014" /></clipPath><clipPath
       clipPathUnits="userSpaceOnUse"
       id="clipPath1060"><path
         d="M 97.2693,538.143 H 158.466 V 359.152 H 97.2693 Z"
         id="path1058" /></clipPath></defs><g
     id="g8"
     transform="matrix(1.3333333,0,0,-1.3333333,-118.66667,952.54813)"><g
       id="g10"><g
         id="g12"
         clip-path="url(#clipPath16)"><g
           id="g530"
           transform="translate(718.125,493.4111)"
           style="fill:#ffffff"><path
             d="m 0,0 h -372 v 199.925 c 0,9.982 8.093,18.075 18.075,18.075 h 335.85 C -8.093,218 0,209.907 0,199.925 Z"
             style="fill:#ffffff;fill-opacity:1;fill-rule:nonzero;stroke:none"
             id="path532" /></g><g
           id="g534"><g
             id="g536" /><g
             id="g548"><g
               clip-path="url(#clipPath540)"
               opacity="0.130005"
               id="g546"><g
                 transform="translate(652.25,504.2012)"
                 id="g544"><path
                   d="m 0,0 h -216 c -4.418,0 -8,3.582 -8,8 v 148 c 0,4.418 3.582,8 8,8 H 0 c 4.418,0 8,-3.582 8,-8 V 8 C 8,3.582 4.418,0 0,0"
                   style="fill:#000000;fill-opacity:1;fill-rule:nonzero;stroke:none"
                   id="path542" /></g></g></g></g><g
           id="g550"
           transform="translate(643.458,511.7446)"
           style="fill:#1a1a1a"><path
             d="m 0,0 h -216 c -4.418,0 -8,3.582 -8,8 v 148 c 0,4.418 3.582,8 8,8 H 0 c 4.419,0 8,-3.582 8,-8 V 8 C 8,3.582 4.419,0 0,0"
             style="fill:#1a1a1a;fill-opacity:1;fill-rule:nonzero;stroke:none"
             id="path552" /></g><g
           id="g554"
           transform="translate(643.458,511.7446)"><path
             d="m 0,0 h -216 c -4.418,0 -8,3.582 -8,8 v 148 c 0,4.418 3.582,8 8,8 H 0 c 4.419,0 8,-3.582 8,-8 V 8 C 8,3.582 4.419,0 0,0 Z"
             style="fill:none;stroke:#2b2f38;stroke-width:4;stroke-linecap:round;stroke-linejoin:round;stroke-miterlimit:10;stroke-dasharray:none;stroke-opacity:1"
             id="path556" /></g><g
           id="g558"
           transform="translate(651.458,652.3667)"><path
             d="m 0,0 h -232 v 15.378 c 0,4.418 3.582,8 8,8 H -8 c 4.419,0 8,-3.582 8,-8 z"
             style="fill:#dee2e2;fill-opacity:1;fill-rule:nonzero;stroke:none"
             id="path560" /></g><g
           id="g562"
           transform="translate(651.458,652.3667)"
           style="fill:#1a1a1a"><path
             d="m 0,0 h -232 v 15.378 c 0,4.418 3.582,8 8,8 H -8 c 4.419,0 8,-3.582 8,-8 z"
             style="fill:#1a1a1a;stroke:#2b2f38;stroke-width:4;stroke-linecap:round;stroke-linejoin:round;stroke-miterlimit:10;stroke-dasharray:none;stroke-opacity:1"
             id="path564" /></g><g
           id="g566"
           style="fill:#ffffff"><g
             id="g568"
             style="fill:#ffffff" /><g
             id="g580"
             style="fill:#ffffff"><g
               clip-path="url(#clipPath572)"
               opacity="0.75"
               id="g578"
               style="fill:#ffffff"><g
                 transform="translate(381.2002,711.4111)"
                 id="g576"
                 style="fill:#ffffff"><path
                   d="m 0,0 h -17 c -9.982,0 -18.075,-8.093 -18.075,-18.075 V -218 h 17 V -18.075 C -18.075,-8.093 -9.982,0 0,0"
                   style="fill:#ffffff;fill-opacity:1;fill-rule:nonzero;stroke:none"
                   id="path574" /></g></g></g></g><g
           id="g582"><g
             id="g584" /><g
             id="g596"><g
               clip-path="url(#clipPath588)"
               opacity="0.130005"
               id="g594"><g
                 transform="translate(700.0498,711.4111)"
                 id="g592"><path
                   d="m 0,0 h -36.829 c 9.983,0 18.075,-8.093 18.075,-18.075 V -218 H 18.075 V -18.075 C 18.075,-8.093 9.982,0 0,0"
                   style="fill:#000000;fill-opacity:1;fill-rule:nonzero;stroke:none"
                   id="path590" /></g></g></g></g><g
           id="g598"
           transform="translate(718.125,493.4111)"><path
             d="m 0,0 h -372 v 199.925 c 0,9.982 8.093,18.075 18.075,18.075 h 335.85 C -8.093,218 0,209.907 0,199.925 Z"
             style="fill:none;stroke:#2b2f38;stroke-width:6;stroke-linecap:round;stroke-linejoin:round;stroke-miterlimit:10;stroke-dasharray:none;stroke-opacity:1"
             id="path600" /></g><g
           id="g602"
           transform="translate(696.3516,429.3193)"><path
             d="m 0,0 h -328.453 c -12.026,0 -21.774,9.749 -21.774,21.773 V 64 h 372 V 21.773 C 21.773,9.749 12.025,0 0,0"
             style="fill:#f0e4e4;fill-opacity:1;fill-rule:nonzero;stroke:none"
             id="path604" /></g><g
           id="g606"><g
             id="g608" /><g
             id="g620"><g
               clip-path="url(#clipPath612)"
               opacity="0.130005"
               id="g618"><g
                 transform="translate(684.125,493.3193)"
                 id="g616"><path
                   d="M 0,0 V -42.227 C 0,-54.251 -9.748,-64 -21.773,-64 h 34 C 24.252,-64 34,-54.251 34,-42.227 V 0 Z"
                   style="fill:#000000;fill-opacity:1;fill-rule:nonzero;stroke:none"
                   id="path614" /></g></g></g></g><g
           id="g622"
           transform="translate(696.3516,436.3193)"><path
             d="m 0,0 h -328.453 c -12.026,0 -21.774,9.749 -21.774,21.773 v -7 C -350.227,2.749 -340.479,-7 -328.453,-7 H 0 c 12.025,0 21.773,9.749 21.773,21.773 v 7 C 21.773,9.749 12.025,0 0,0"
             style="fill:#cec8c8;fill-opacity:1;fill-rule:nonzero;stroke:none"
             id="path624" /></g><g
           id="g626"
           transform="translate(696.3516,429.3193)"><path
             d="m 0,0 h -328.453 c -12.026,0 -21.774,9.749 -21.774,21.773 V 64 h 372 V 21.773 C 21.773,9.749 12.025,0 0,0 Z"
             style="fill:none;stroke:#2b2f38;stroke-width:6;stroke-linecap:round;stroke-linejoin:round;stroke-miterlimit:10;stroke-dasharray:none;stroke-opacity:1"
             id="path628" /></g><g
           id="g630"
           transform="translate(603.125,355.3193)"><path
             d="m 0,0 h -142 c -5.522,0 -10,4.478 -10,10 0,5.523 4.478,10 10,10 H 0 C 5.522,20 10,15.523 10,10 10,4.478 5.522,0 0,0"
             style="fill:#ffffff;fill-opacity:1;fill-rule:nonzero;stroke:none"
             id="path632" /></g><g
           id="g634"
           transform="translate(454.9141,355.3193)"><path
             d="m 0,0 h 154.422 c 2.093,0 3.789,1.696 3.789,3.789 0,2.093 -1.696,3.789 -3.789,3.789 H 0 C -2.093,7.578 -3.789,5.882 -3.789,3.789 -3.789,1.696 -2.093,0 0,0"
             style="fill:#cecec8;fill-opacity:1;fill-rule:nonzero;stroke:none"
             id="path636" /></g><g
           id="g638"
           transform="translate(603.125,355.3193)"><path
             d="m 0,0 h -142 c -5.522,0 -10,4.478 -10,10 0,5.523 4.478,10 10,10 H 0 C 5.522,20 10,15.523 10,10 10,4.478 5.522,0 0,0 Z"
             style="fill:none;stroke:#2b2f38;stroke-width:6;stroke-linecap:round;stroke-linejoin:round;stroke-miterlimit:10;stroke-dasharray:none;stroke-opacity:1"
             id="path640" /></g><g
           id="g642"
           transform="translate(559.125,402.3193)"><path
             d="M 0,0 C 0,14.912 12.088,27 27,27 H -81 c 14.912,0 27,-12.088 27,-27 0,-14.911 -12.088,-27 -27,-27 H 27 C 12.088,-27 0,-14.911 0,0"
             style="fill:#cecec8;fill-opacity:1;fill-rule:nonzero;stroke:none"
             id="path644" /></g><g
           id="g646"
           transform="translate(499.4326,418.8926)"><path
             d="m 0,0 h 65.385 c 4.94,6.343 12.644,10.427 21.307,10.427 h -108 C -12.645,10.427 -4.94,6.343 0,0"
             style="fill:#bcbcb8;fill-opacity:1;fill-rule:nonzero;stroke:none"
             id="path648" /></g><g
           id="g650"
           transform="translate(559.6328,397.1064)"><path
             d="m 0,0 c -0.33,-1.687 -0.508,-3.43 -0.508,-5.214 0,-6.249 2.129,-11.997 5.693,-16.573 H 26.492 C 13.364,-21.787 2.43,-12.416 0,0"
             style="fill:#cecec8;fill-opacity:1;fill-rule:nonzero;stroke:none"
             id="path652" /></g><g
           id="g654"
           transform="translate(514.6787,402.3193)"><path
             d="m 0,0 c 0,14.912 -12.089,27 -27,27 h -9.554 c 14.912,0 27,-12.088 27,-27 0,-14.911 -12.088,-27 -27,-27 H -27 c 14.911,0 27,12.089 27,27"
             style="fill:#dddddb;fill-opacity:1;fill-rule:nonzero;stroke:none"
             id="path656" /></g><g
           id="g658"
           transform="translate(559.125,402.3193)"><path
             d="M 0,0 C 0,14.912 12.088,27 27,27 H 12.125 c -14.912,0 -27,-12.088 -27,-27 0,-14.911 12.088,-27 27,-27 H 27 C 12.088,-27 0,-14.911 0,0"
             style="fill:#bcbcb8;fill-opacity:1;fill-rule:nonzero;stroke:none"
             id="path660" /></g><g
           id="g662"
           transform="translate(559.125,402.3193)"><path
             d="M 0,0 C 0,14.912 12.088,27 27,27 H -81 c 14.912,0 27,-12.088 27,-27 0,-14.911 -12.088,-27 -27,-27 H 27 C 12.088,-27 0,-14.911 0,0 Z"
             style="fill:none;stroke:#2b2f38;stroke-width:6;stroke-linecap:round;stroke-linejoin:round;stroke-miterlimit:10;stroke-dasharray:none;stroke-opacity:1"
             id="path664" /></g><g
           id="g666"
           transform="translate(546.2207,625.3511)"
           style="fill:#E5BA73"><path
             d="M 0,0 H 77.333"
             style="fill:#E5BA73;stroke:#ffffff;stroke-width:6;stroke-linecap:round;stroke-linejoin:round;stroke-miterlimit:10;stroke-dasharray:none;stroke-opacity:1"
             id="path668" /></g><g
           id="g670"
           style="fill:#E5BA73"><g
             id="g672"
             style="fill:#E5BA73" /><g
             id="g684"
             style="fill:#E5BA73"><g
               clip-path="url(#clipPath676)"
               opacity="0.690002"
               id="g682"
               style="fill:#E5BA73"><g
                 transform="translate(546.2207,606.4111)"
                 id="g680"
                 style="fill:#E5BA73"><path
                   d="M 0,0 H 52.667"
                   style="fill:#E5BA73;stroke:#ffffff;stroke-width:6;stroke-linecap:round;stroke-linejoin:round;stroke-miterlimit:10;stroke-dasharray:none;stroke-opacity:1"
                   id="path678" /></g></g></g></g><g
           id="g686"
           style="fill:#E5BA73"><g
             id="g688"
             style="fill:#E5BA73" /><g
             id="g700"
             style="fill:#E5BA73"><g
               clip-path="url(#clipPath692)"
               opacity="0.350006"
               id="g698"
               style="fill:#E5BA73"><g
                 transform="translate(546.2207,587.4717)"
                 id="g696"
                 style="fill:#E5BA73"><path
                   d="M 0,0 H 77.333"
                   style="fill:#E5BA73;stroke:#ffffff;stroke-width:6;stroke-linecap:round;stroke-linejoin:round;stroke-miterlimit:10;stroke-dasharray:none;stroke-opacity:1"
                   id="path694" /></g></g></g></g><g
           id="g702"><g
             id="g704" /><g
             id="g716"><g
               clip-path="url(#clipPath708)"
               opacity="0.300003"
               id="g714"><g
                 transform="translate(564.458,543.8135)"
                 id="g712"><path
                   d="m 0,0 c 0,-14.912 -12.088,-27 -27,-27 -14.911,0 -27,12.088 -27,27 0,14.912 12.089,27 27,27 C -12.088,27 0,14.912 0,0"
                   style="fill:#000000;fill-opacity:1;fill-rule:nonzero;stroke:none"
                   id="path710" /></g></g></g></g><g
           id="g718"
           transform="translate(562.458,545.8135)"><path
             d="m 0,0 c 0,-14.912 -12.088,-27 -27,-27 -14.911,0 -27,12.088 -27,27 0,14.912 12.089,27 27,27 C -12.088,27 0,14.912 0,0"
             style="fill:#2b2f38;fill-opacity:1;fill-rule:nonzero;stroke:none"
             id="path720" /></g><g
           id="g722"
           transform="translate(530.083,558.4746)"
           style="fill:#E5BA73"><path
             d="m 0,0 20.022,-11.56 c 0.848,-0.489 0.848,-1.712 0,-2.202 L 0,-25.322 c -0.848,-0.49 -1.907,0.122 -1.907,1.101 v 23.12 C -1.907,-0.122 -0.848,0.49 0,0"
             style="fill:#E5BA73;fill-opacity:1;fill-rule:nonzero;stroke:none"
             id="path724" /></g><g
           id="g726"><g
             id="g728" /><g
             id="g740"><g
               clip-path="url(#clipPath732)"
               opacity="0.300003"
               id="g738"><g
                 transform="translate(606.1309,546.3999)"
                 id="g736"><path
                   d="M 0,0 -10.661,6.155 C -11.112,6.416 -11.677,6.09 -11.677,5.569 V 1.218 l -8.552,4.937 C -20.68,6.416 -21.243,6.09 -21.243,5.569 V -6.742 c 0,-0.521 0.563,-0.846 1.014,-0.586 l 8.552,4.937 v -4.351 c 0,-0.521 0.565,-0.846 1.016,-0.586 L 0,-1.172 C 0.451,-0.912 0.451,-0.261 0,0"
                   style="fill:#000000;fill-opacity:1;fill-rule:nonzero;stroke:none"
                   id="path734" /></g></g></g></g><g
           id="g742"><g
             id="g744" /><g
             id="g756"><g
               clip-path="url(#clipPath748)"
               opacity="0.300003"
               id="g754"><g
                 transform="translate(463.9551,546.3999)"
                 id="g752"><path
                   d="M 0,0 10.662,6.155 C 11.113,6.416 11.678,6.09 11.678,5.569 V 1.218 l 8.551,4.937 C 20.68,6.416 21.244,6.09 21.244,5.569 V -6.742 c 0,-0.521 -0.564,-0.846 -1.015,-0.586 l -8.551,4.937 v -4.351 c 0,-0.521 -0.565,-0.846 -1.016,-0.586 L 0,-1.172 C -0.451,-0.912 -0.451,-0.261 0,0"
                   style="fill:#000000;fill-opacity:1;fill-rule:nonzero;stroke:none"
                   id="path750" /></g></g></g></g><g
           id="g758"
           transform="translate(291.0205,364.6191)"><path
             d="m 0,0 h -74 c -9.94,0 -18,8.059 -18,18 v 152 c 0,9.941 8.06,18 18,18 H 0 c 9.941,0 18,-8.059 18,-18 V 18 C 18,8.059 9.941,0 0,0"
             style="fill:#E5BA73;fill-opacity:1;fill-rule:nonzero;stroke:none"
             id="path760" /></g><g
           id="g762"
           transform="translate(291.0205,364.6191)"><path
             d="m 0,0 h -74 c -9.94,0 -18,8.059 -18,18 v 152 c 0,9.941 8.06,18 18,18 H 0 c 9.941,0 18,-8.059 18,-18 V 18 C 18,8.059 9.941,0 0,0"
             style="fill:#E5BA73;fill-opacity:1;fill-rule:nonzero;stroke:none"
             id="path764" /></g><g
           id="g766"
           transform="translate(210.0205,382.6191)"><path
             d="m 0,0 v 152 c 0,9.941 8.06,18 18,18 H 7 c -9.94,0 -18,-8.059 -18,-18 V 0 c 0,-9.941 8.06,-18 18,-18 H 18 C 8.06,-18 0,-9.941 0,0"
             style="fill:#E5BA73;fill-opacity:1;fill-rule:nonzero;stroke:none"
             id="path768" /></g><g
           id="g770"
           transform="translate(291.0205,552.6191)"><path
             d="M 0,0 H -12 C -2.059,0 6,-8.059 6,-18 v -152 c 0,-9.941 -8.059,-18 -18,-18 H 0 c 9.941,0 18,8.059 18,18 V -18 C 18,-8.059 9.941,0 0,0"
             style="fill:#E5BA73;fill-opacity:1;fill-rule:nonzero;stroke:none"
             id="path772" /></g><g
           id="g774"
           transform="translate(291.0205,370.6191)"><path
             d="m 0,0 h -74 c -9.94,0 -18,8.059 -18,18 v -6 c 0,-9.941 8.06,-18 18,-18 H 0 c 9.941,0 18,8.059 18,18 v 6 C 18,8.059 9.941,0 0,0"
             style="fill:#E5BA73;fill-opacity:1;fill-rule:nonzero;stroke:none"
             id="path776" /></g><g
           id="g778"
           transform="translate(291.0205,552.6191)"><path
             d="m 0,0 h -74 c -9.94,0 -18,-8.059 -18,-18 v -5.806 c 0,9.942 8.06,18 18,18 H 0 c 9.941,0 18,-8.058 18,-18 V -18 C 18,-8.059 9.941,0 0,0"
             style="fill:#cea895;fill-opacity:1;fill-rule:nonzero;stroke:none"
             id="path780" /></g><g
           id="g782"
           transform="translate(291.0205,364.6191)"
           style="fill:#666666"><path
             d="m 0,0 h -74 c -9.94,0 -18,8.059 -18,18 v 152 c 0,9.941 8.06,18 18,18 H 0 c 9.941,0 18,-8.059 18,-18 V 18 C 18,8.059 9.941,0 0,0 Z"
             style="fill:#666666;stroke:#2b2f38;stroke-width:6;stroke-linecap:round;stroke-linejoin:round;stroke-miterlimit:10;stroke-dasharray:none;stroke-opacity:1"
             id="path784" /></g><g
           id="g786"
           transform="translate(224.2119,533.3652)"><path
             d="m 0,0 c 0,-3.391 -2.749,-6.141 -6.141,-6.141 -3.391,0 -6.14,2.75 -6.14,6.141 0,3.392 2.749,6.141 6.14,6.141 C -2.749,6.141 0,3.392 0,0"
             style="fill:#2b2f38;fill-opacity:1;fill-rule:nonzero;stroke:none"
             id="path788" /></g><g
           id="g790"
           transform="translate(296.1113,533.3652)"><path
             d="m 0,0 c 0,-3.391 -2.749,-6.141 -6.141,-6.141 -3.391,0 -6.141,2.75 -6.141,6.141 0,3.392 2.75,6.141 6.141,6.141 C -2.749,6.141 0,3.392 0,0"
             style="fill:#2b2f38;fill-opacity:1;fill-rule:nonzero;stroke:none"
             id="path792" /></g><g
           id="g794"
           transform="translate(224.9795,381.8896)"><path
             d="m 0,0 c 0,-3.391 -2.749,-6.141 -6.141,-6.141 -3.391,0 -6.14,2.75 -6.14,6.141 0,3.392 2.749,6.142 6.14,6.142 C -2.749,6.142 0,3.392 0,0"
             style="fill:#2b2f38;fill-opacity:1;fill-rule:nonzero;stroke:none"
             id="path796" /></g><g
           id="g798"
           transform="translate(296.8789,381.8896)"><path
             d="m 0,0 c 0,-3.391 -2.749,-6.141 -6.141,-6.141 -3.391,0 -6.141,2.75 -6.141,6.141 0,3.392 2.75,6.142 6.141,6.142 C -2.749,6.142 0,3.392 0,0"
             style="fill:#2b2f38;fill-opacity:1;fill-rule:nonzero;stroke:none"
             id="path800" /></g><g
           id="g802"
           transform="translate(254.7881,468.3047)"><path
             d="M 0,0 C -14.888,0 -27,12.112 -27,27 -27,41.887 -14.888,54 0,54 14.888,54 27,41.887 27,27 27,12.112 14.888,0 0,0"
             style="fill:#2b2f38;fill-opacity:1;fill-rule:nonzero;stroke:none"
             id="path804" /></g><g
           id="g806"><g
             id="g808" /><g
             id="g820"><g
               clip-path="url(#clipPath812)"
               opacity="0.279999"
               id="g818"><g
                 transform="translate(254.7881,466.3047)"
                 id="g816"><path
                   d="M 0,0 C -15.99,0 -29,13.01 -29,29 -29,44.99 -15.99,58 0,58 15.99,58 29,44.99 29,29 29,13.01 15.99,0 0,0 Z"
                   style="fill:none;stroke:#000000;stroke-width:1;stroke-linecap:butt;stroke-linejoin:miter;stroke-miterlimit:10;stroke-dasharray:none;stroke-opacity:1"
                   id="path814" /></g></g></g></g><g
           id="g822"
           transform="translate(254.7881,475.3047)"
           style="fill:#E5BA73"><path
             d="m 0,0 c -11.027,0 -20,8.972 -20,20 0,11.027 8.973,20 20,20 C 11.028,40 20,31.027 20,20 20,8.972 11.028,0 0,0"
             style="fill:#E5BA73;fill-opacity:1;fill-rule:nonzero;stroke:none"
             id="path824" /></g><g
           id="g826"><g
             id="g828" /><g
             id="g840"><g
               clip-path="url(#clipPath832)"
               opacity="0.279999"
               id="g838"><g
                 transform="translate(254.0205,391.6318)"
                 id="g836"><path
                   d="M 0,0 C -18.196,0 -33,14.804 -33,33 -33,51.196 -18.196,66 0,66 18.196,66 33,51.196 33,33 33,14.804 18.196,0 0,0 Z"
                   style="fill:none;stroke:#000000;stroke-width:1;stroke-linecap:butt;stroke-linejoin:miter;stroke-miterlimit:10;stroke-dasharray:none;stroke-opacity:1"
                   id="path834" /></g></g></g></g><g
           id="g842"
           transform="translate(285.0205,424.6318)"><path
             d="m 0,0 c 0,-17.12 -13.879,-31 -31,-31 -17.12,0 -31,13.88 -31,31 0,17.121 13.88,31 31,31 C -13.879,31 0,17.121 0,0"
             style="fill:#2b2f38;fill-opacity:1;fill-rule:nonzero;stroke:none"
             id="path844" /></g><g
           id="g846"
           transform="translate(280.0205,424.6318)"
           style="fill:#E5BA73"><path
             d="m 0,0 c 0,-14.359 -11.641,-26 -26,-26 -14.359,0 -26,11.641 -26,26 0,14.359 11.641,26 26,26 C -11.641,26 0,14.359 0,0"
             style="fill:#E5BA73;fill-opacity:1;fill-rule:nonzero;stroke:none"
             id="path848" /></g><g
           id="g850"
           transform="translate(266.0205,424.6318)"><path
             d="m 0,0 c 0,-6.627 -5.372,-12 -12,-12 -6.627,0 -12,5.373 -12,12 0,6.628 5.373,12 12,12 C -5.372,12 0,6.628 0,0"
             style="fill:#2b2f38;fill-opacity:1;fill-rule:nonzero;stroke:none"
             id="path852" /></g><g
           id="g854"
           transform="translate(262.7881,495.3037)"><path
             d="m 0,0 c 0,-4.418 -3.581,-8 -8,-8 -4.418,0 -8,3.582 -8,8 0,4.418 3.582,8 8,8 4.419,0 8,-3.582 8,-8"
             style="fill:#2b2f38;fill-opacity:1;fill-rule:nonzero;stroke:none"
             id="path856" /></g><g
           id="g858"
           transform="translate(545.25,464.0713)"
           style="fill:#E5BA73"><path
             d="m 0,0 c 0,-7.731 -6.268,-14 -14,-14 -7.732,0 -14,6.269 -14,14 0,7.732 6.268,14 14,14 C -6.268,14 0,7.732 0,0"
             style="fill:#E5BA73;fill-opacity:1;fill-rule:nonzero;stroke:none"
             id="path860" /></g><g
           id="g862"
           transform="translate(545.25,464.0713)"><path
             d="m 0,0 c 0,-7.731 -6.268,-14 -14,-14 -7.732,0 -14,6.269 -14,14 0,7.732 6.268,14 14,14 C -6.268,14 0,7.732 0,0 Z"
             style="fill:none;stroke:#2b2f38;stroke-width:4;stroke-linecap:round;stroke-linejoin:round;stroke-miterlimit:10;stroke-dasharray:none;stroke-opacity:1"
             id="path864" /></g><path
           d="m 239.437,355.366 h -21.621 v 8 h 21.621 z"
           style="fill:#2b2f38;fill-opacity:1;fill-rule:nonzero;stroke:none"
           id="path866" /><path
           d="m 291.762,355.366 h -21.621 v 8 h 21.621 z"
           style="fill:#2b2f38;fill-opacity:1;fill-rule:nonzero;stroke:none"
           id="path868" /><g
           id="g870"
           transform="translate(853.0762,364.6191)"><path
             d="m 0,0 h -74 c -9.941,0 -18,8.059 -18,18 v 152 c 0,9.941 8.059,18 18,18 H 0 c 9.94,0 18,-8.059 18,-18 V 18 C 18,8.059 9.94,0 0,0"
             style="fill:#E5BA73;fill-opacity:1;fill-rule:nonzero;stroke:none"
             id="path872" /></g><g
           id="g874"
           transform="translate(853.0762,364.6191)"><path
             d="m 0,0 h -74 c -9.941,0 -18,8.059 -18,18 v 152 c 0,9.941 8.059,18 18,18 H 0 c 9.94,0 18,-8.059 18,-18 V 18 C 18,8.059 9.94,0 0,0"
             style="fill:#E5BA73;fill-opacity:1;fill-rule:nonzero;stroke:none"
             id="path876" /></g><g
           id="g878"
           transform="translate(772.0762,382.6191)"><path
             d="m 0,0 v 152 c 0,9.941 8.059,18 18,18 H 7 c -9.941,0 -18,-8.059 -18,-18 V 0 c 0,-9.941 8.059,-18 18,-18 H 18 C 8.059,-18 0,-9.941 0,0"
             style="fill:#E5BA73;fill-opacity:1;fill-rule:nonzero;stroke:none"
             id="path880" /></g><g
           id="g882"
           transform="translate(853.0762,552.6191)"><path
             d="M 0,0 H -12 C -2.06,0 6,-8.059 6,-18 v -152 c 0,-9.941 -8.06,-18 -18,-18 H 0 c 9.94,0 18,8.059 18,18 V -18 C 18,-8.059 9.94,0 0,0"
             style="fill:#E5BA73;fill-opacity:1;fill-rule:nonzero;stroke:none"
             id="path884" /></g><g
           id="g886"
           transform="translate(853.0762,370.6191)"><path
             d="m 0,0 h -74 c -9.941,0 -18,8.059 -18,18 v -6 c 0,-9.941 8.059,-18 18,-18 H 0 c 9.94,0 18,8.059 18,18 v 6 C 18,8.059 9.94,0 0,0"
             style="fill:#E5BA73;fill-opacity:1;fill-rule:nonzero;stroke:none"
             id="path888" /></g><g
           id="g890"
           transform="translate(853.0762,552.6191)"><path
             d="m 0,0 h -74 c -9.941,0 -18,-8.059 -18,-18 v -5.806 c 0,9.942 8.059,18 18,18 H 0 c 9.94,0 18,-8.058 18,-18 V -18 C 18,-8.059 9.94,0 0,0"
             style="fill:#cea895;fill-opacity:1;fill-rule:nonzero;stroke:none"
             id="path892" /></g><g
           id="g894"
           transform="translate(853.0762,364.6191)"><path
             d="m 0,0 h -74 c -9.941,0 -18,8.059 -18,18 v 152 c 0,9.941 8.059,18 18,18 H 0 c 9.94,0 18,-8.059 18,-18 V 18 C 18,8.059 9.94,0 0,0 Z"
             style="fill:#666666;stroke:#2b2f38;stroke-width:6;stroke-linecap:round;stroke-linejoin:round;stroke-miterlimit:10;stroke-dasharray:none;stroke-opacity:1"
             id="path896" /></g><g
           id="g898"
           transform="translate(786.2666,533.3652)"><path
             d="m 0,0 c 0,-3.391 -2.749,-6.141 -6.141,-6.141 -3.391,0 -6.14,2.75 -6.14,6.141 0,3.392 2.749,6.141 6.14,6.141 C -2.749,6.141 0,3.392 0,0"
             style="fill:#2b2f38;fill-opacity:1;fill-rule:nonzero;stroke:none"
             id="path900" /></g><g
           id="g902"
           transform="translate(858.166,533.3652)"><path
             d="m 0,0 c 0,-3.391 -2.749,-6.141 -6.141,-6.141 -3.391,0 -6.14,2.75 -6.14,6.141 0,3.392 2.749,6.141 6.14,6.141 C -2.749,6.141 0,3.392 0,0"
             style="fill:#2b2f38;fill-opacity:1;fill-rule:nonzero;stroke:none"
             id="path904" /></g><g
           id="g906"
           transform="translate(787.0352,381.8896)"><path
             d="m 0,0 c 0,-3.391 -2.75,-6.141 -6.142,-6.141 -3.391,0 -6.14,2.75 -6.14,6.141 0,3.392 2.749,6.142 6.14,6.142 C -2.75,6.142 0,3.392 0,0"
             style="fill:#2b2f38;fill-opacity:1;fill-rule:nonzero;stroke:none"
             id="path908" /></g><g
           id="g910"
           transform="translate(858.9336,381.8896)"><path
             d="m 0,0 c 0,-3.391 -2.749,-6.141 -6.141,-6.141 -3.391,0 -6.14,2.75 -6.14,6.141 0,3.392 2.749,6.142 6.14,6.142 C -2.749,6.142 0,3.392 0,0"
             style="fill:#2b2f38;fill-opacity:1;fill-rule:nonzero;stroke:none"
             id="path912" /></g><g
           id="g914"
           transform="translate(816.8437,468.3047)"><path
             d="M 0,0 C -14.888,0 -27,12.112 -27,27 -27,41.887 -14.888,54 0,54 14.887,54 27,41.887 27,27 27,12.112 14.887,0 0,0"
             style="fill:#2b2f38;fill-opacity:1;fill-rule:nonzero;stroke:none"
             id="path916" /></g><g
           id="g918"><g
             id="g920" /><g
             id="g932"><g
               clip-path="url(#clipPath924)"
               opacity="0.279999"
               id="g930"><g
                 transform="translate(816.8437,466.3047)"
                 id="g928"><path
                   d="M 0,0 C -15.991,0 -29,13.01 -29,29 -29,44.99 -15.991,58 0,58 15.99,58 29,44.99 29,29 29,13.01 15.99,0 0,0 Z"
                   style="fill:none;stroke:#000000;stroke-width:1;stroke-linecap:butt;stroke-linejoin:miter;stroke-miterlimit:10;stroke-dasharray:none;stroke-opacity:1"
                   id="path926" /></g></g></g></g><g
           id="g934"
           transform="translate(816.8437,475.3047)"
           style="fill:#E5BA73"><path
             d="m 0,0 c -11.028,0 -20,8.972 -20,20 0,11.027 8.972,20 20,20 C 11.027,40 20,31.027 20,20 20,8.972 11.027,0 0,0"
             style="fill:#E5BA73;fill-opacity:1;fill-rule:nonzero;stroke:none"
             id="path936" /></g><g
           id="g938"><g
             id="g940" /><g
             id="g952"><g
               clip-path="url(#clipPath944)"
               opacity="0.279999"
               id="g950"><g
                 transform="translate(816.0752,391.6318)"
                 id="g948"><path
                   d="M 0,0 C -18.196,0 -33,14.804 -33,33 -33,51.196 -18.196,66 0,66 18.196,66 33,51.196 33,33 33,14.804 18.196,0 0,0 Z"
                   style="fill:none;stroke:#000000;stroke-width:1;stroke-linecap:butt;stroke-linejoin:miter;stroke-miterlimit:10;stroke-dasharray:none;stroke-opacity:1"
                   id="path946" /></g></g></g></g><g
           id="g954"
           transform="translate(847.0762,424.6318)"><path
             d="m 0,0 c 0,-17.12 -13.88,-31 -31,-31 -17.121,0 -31,13.88 -31,31 0,17.121 13.879,31 31,31 C -13.88,31 0,17.121 0,0"
             style="fill:#2b2f38;fill-opacity:1;fill-rule:nonzero;stroke:none"
             id="path956" /></g><g
           id="g958"
           transform="translate(842.0762,424.6318)"
           style="fill:#E5BA73"><path
             d="m 0,0 c 0,-14.359 -11.641,-26 -26,-26 -14.359,0 -26,11.641 -26,26 0,14.359 11.641,26 26,26 C -11.641,26 0,14.359 0,0"
             style="fill:#E5BA73;fill-opacity:1;fill-rule:nonzero;stroke:none"
             id="path960" /></g><g
           id="g962"
           transform="translate(828.0762,424.6318)"><path
             d="m 0,0 c 0,-6.627 -5.373,-12 -12,-12 -6.628,0 -12,5.373 -12,12 0,6.628 5.372,12 12,12 C -5.373,12 0,6.628 0,0"
             style="fill:#2b2f38;fill-opacity:1;fill-rule:nonzero;stroke:none"
             id="path964" /></g><g
           id="g966"
           transform="translate(824.8437,495.3037)"><path
             d="m 0,0 c 0,-4.418 -3.582,-8 -8,-8 -4.419,0 -8,3.582 -8,8 0,4.418 3.581,8 8,8 4.418,0 8,-3.582 8,-8"
             style="fill:#2b2f38;fill-opacity:1;fill-rule:nonzero;stroke:none"
             id="path968" /></g><path
           d="M 801.491,355.366 H 779.87 v 8 h 21.621 z"
           style="fill:#2b2f38;fill-opacity:1;fill-rule:nonzero;stroke:none"
           id="path970" /><path
           d="m 853.816,355.366 h -21.621 v 8 h 21.621 z"
           style="fill:#2b2f38;fill-opacity:1;fill-rule:nonzero;stroke:none"
           id="path972" /><g
           id="g978"><g
             id="g980" /><g
             id="g992"><g
               clip-path="url(#clipPath984)"
               opacity="0.210007"
               id="g990"><g
                 transform="translate(436.875,664.0557)"
                 id="g988"><path
                   d="m 0,0 c 0,-2.209 -1.791,-4 -4,-4 -2.209,0 -4,1.791 -4,4 0,2.209 1.791,4 4,4 2.209,0 4,-1.791 4,-4"
                   style="fill:#000000;fill-opacity:1;fill-rule:nonzero;stroke:none"
                   id="path986" /></g></g></g></g><g
           id="g994"><g
             id="g996" /><g
             id="g1008"><g
               clip-path="url(#clipPath1000)"
               opacity="0.210007"
               id="g1006"><g
                 transform="translate(450.375,664.0557)"
                 id="g1004"><path
                   d="m 0,0 c 0,-2.209 -1.791,-4 -4,-4 -2.209,0 -4,1.791 -4,4 0,2.209 1.791,4 4,4 2.209,0 4,-1.791 4,-4"
                   style="fill:#000000;fill-opacity:1;fill-rule:nonzero;stroke:none"
                   id="path1002" /></g></g></g></g><g
           id="g1010"><g
             id="g1012" /><g
             id="g1024"><g
               clip-path="url(#clipPath1016)"
               opacity="0.210007"
               id="g1022"><g
                 transform="translate(463.875,664.0557)"
                 id="g1020"><path
                   d="m 0,0 c 0,-2.209 -1.791,-4 -4,-4 -2.209,0 -4,1.791 -4,4 0,2.209 1.791,4 4,4 2.209,0 4,-1.791 4,-4"
                   style="fill:#000000;fill-opacity:1;fill-rule:nonzero;stroke:none"
                   id="path1018" /></g></g></g></g><g
           id="g1026"
           transform="translate(901.5713,355.1133)"><path
             d="M 0,0 H 29.929"
             style="fill:none;stroke:#283035;stroke-width:6;stroke-linecap:round;stroke-linejoin:round;stroke-miterlimit:10;stroke-dasharray:none;stroke-opacity:1"
             id="path1028" /></g><g
           id="g1030"
           transform="translate(718.5801,355.1133)"><path
             d="M 0,0 H 167.992"
             style="fill:none;stroke:#283035;stroke-width:6;stroke-linecap:round;stroke-linejoin:round;stroke-miterlimit:10;stroke-dasharray:none;stroke-opacity:1"
             id="path1032" /></g><g
           id="g1034"
           transform="translate(396,355.1133)"><path
             d="M 0,0 H 306.081"
             style="fill:none;stroke:#283035;stroke-width:6;stroke-linecap:round;stroke-linejoin:round;stroke-miterlimit:10;stroke-dasharray:none;stroke-opacity:1"
             id="path1036" /></g><g
           id="g1038"
           transform="translate(375.5,355.1133)"><path
             d="M 0,0 H 11.001"
             style="fill:none;stroke:#283035;stroke-width:6;stroke-linecap:round;stroke-linejoin:round;stroke-miterlimit:10;stroke-dasharray:none;stroke-opacity:1"
             id="path1040" /></g><g
           id="g1042"
           transform="translate(189,355.1133)"><path
             d="M 0,0 H 174.663"
             style="fill:none;stroke:#283035;stroke-width:6;stroke-linecap:round;stroke-linejoin:round;stroke-miterlimit:10;stroke-dasharray:none;stroke-opacity:1"
             id="path1044" /></g><g
           id="g1046"
           transform="translate(92,355.1133)"><path
             d="M 0,0 H 83"
             style="fill:none;stroke:#283035;stroke-width:6;stroke-linecap:round;stroke-linejoin:round;stroke-miterlimit:10;stroke-dasharray:none;stroke-opacity:1"
             id="path1048" /></g><g
           id="g1050"
           transform="translate(69.667,355.1133)" /><g
           id="g1054"><g
             id="g1056" /><g
             id="g1068"><g
               clip-path="url(#clipPath1060)"
               opacity="0.770004"
               id="g1066"><g
                 transform="translate(143.1543,511.7578)"
                 id="g1064" /></g></g></g><g
           id="g1070"
           transform="translate(160.416,462.0166)" /><g
           style="fill:#E5BA73"
           id="g3"
           transform="matrix(0.11480105,0,0,-0.11480105,455.08256,634.81578)"><g
             id="g2"
             style="fill:#E5BA73">
	<g
   id="g1"
   style="fill:#E5BA73">
		<path
   d="M 0,0 V 472.615 H 472.615 V 0 Z M 86.161,432 H 39.213 V 385.052 H 86.16 V 432 Z m 0,-86.109 H 39.213 V 298.943 H 86.16 v 46.948 z m 0,-86.109 H 39.213 V 212.834 H 86.16 v 46.948 z m 0,-86.11 H 39.213 V 126.724 H 86.16 v 46.948 z m 0,-86.109 H 39.213 V 40.615 H 86.16 V 87.563 Z M 348.8,452.923 H 123.815 V 246.153 H 348.8 Z m 0,-226.462 H 123.815 V 19.692 H 348.8 Z M 433.402,432 h -46.948 v -46.948 h 46.948 z m 0,-86.109 h -46.948 v -46.948 h 46.948 z m 0,-86.109 h -46.948 v -46.948 h 46.948 z m 0,-86.11 h -46.948 v -46.948 h 46.948 z m 0,-86.109 H 386.454 V 40.615 h 46.948 z"
   id="path1"
   style="fill:#E5BA73" />
	</g>
</g></g></g></g></g></svg>